<svg width="600" height="40" viewBox="0 0 600 40" fill="none" xmlns="http://www.w3.org/2000/svg">
<g clip-path="url(#clip0_66_20)">
<rect width="600" height="40" fill="#622323"/>
<path d="M0 20V40H300H600V20V0H300H0V20ZM144.404 2.75862C149.235 3.27586 152.783 4.37931 156.758 6.62069C162.08 9.58621 164.709 13.5172 164.465 18.069L164.343 20.5172L300.184 20.6207L436.086 20.6897V17.7931C436.086 8 449.419 1.13793 465.382 2.72414C473.639 3.55172 480.979 6.10345 494.495 12.7931C507.584 19.3103 518.471 23.6897 531.376 27.7586C557.125 35.8276 575.107 36.8966 585.872 30.9655C589.419 29.0345 591.132 26.4828 591.132 23.2759C591.132 20.8276 590.887 20.2414 589.113 18.1724C586.972 15.7586 584.709 14.5172 579.511 13.0345C576.086 12.0345 569.602 11.7931 566.055 12.5517C560.917 13.6897 558.165 16.6552 559.572 19.5862C561.04 22.7241 564.771 24.5172 569.969 24.5517C572.538 24.5862 572.599 24.5862 571.009 24.8621C566.606 25.5517 561.774 24.0345 559.266 21.2069C556.024 17.4483 558.165 13.6552 564.526 11.8276C568.196 10.7586 574.679 10.7241 579.633 11.7931C584.587 12.8276 590.092 15.9655 592.049 18.7931C593.945 21.5862 593.945 25.2759 592.11 28C588.318 33.5862 579.694 36.5517 567.339 36.5517C557.676 36.5517 548.624 35.1034 536.33 31.6207C520.183 27.069 508.257 22.4483 492.844 14.7931C478.593 7.72414 472.599 5.55172 465.015 4.65517C454.924 3.48276 445.076 6.41379 440.489 12C438.593 14.3793 437.737 19.931 439.205 20.8966C439.633 21.2069 439.939 21.8966 439.878 22.4483C439.633 23.6207 442.63 27.2414 445.321 29.069C450.826 32.8276 458.716 33.1379 462.691 29.7241C466.177 26.7241 465.933 22.9655 462.08 20.7931C459.939 19.5862 460 19.3103 462.263 20.2069C462.997 20.4828 464.22 21.3793 464.893 22.1724C465.933 23.3103 466.177 24 465.933 25.8276C465.199 31.5517 457.921 34.5172 449.847 32.4483C446.239 31.5517 441.529 28.4483 439.083 25.3793L437.003 22.7586L300.122 22.8276L163.242 22.931L161.774 24.9655C157.187 31.3103 148.502 34.4828 141.407 32.4483C136.636 31.069 133.517 26.5172 135.107 23.1724C135.78 21.7586 138.899 19.6552 140.245 19.6552C140.673 19.6552 140.183 20 139.205 20.4138C135.474 22 134.618 25.7931 137.37 28.8966C140.856 32.8621 147.951 33.3103 154.067 29.9655C157.309 28.1379 159.388 26.2069 160.55 23.9655C161.101 22.8276 161.835 21.4138 162.141 20.8276C162.875 19.4138 162.813 16.9655 162.018 14.7586C159.45 7.89655 148.073 3.34483 136.514 4.51724C129.235 5.27586 122.08 7.7931 110.398 13.6207C95.5963 21 85.1376 25.2759 71.315 29.6207C56.7584 34.1724 46.5443 36.1724 36.2691 36.4483C25.6269 36.7586 19.0826 35.6207 13.5168 32.4828C8.50153 29.6207 6.11621 25.3793 7.33945 21.3103C9.60245 13.3793 26.1162 8.41379 37.5535 12.2069C40.9786 13.3448 42.8135 15.2414 42.8135 17.7241C42.8135 20.6207 40.5505 23.1379 37.0031 24.2069C33.4557 25.3103 28.0122 25.1379 26.2385 23.8966C25.5046 23.4138 25.6269 23.4138 27.0948 23.9655C29.3578 24.7931 33.7615 24.7241 36.3914 23.7931C38.8991 22.931 41.5902 20.0345 41.5902 18.2069C41.5902 14.3103 36.0245 11.8276 27.9511 12.1379C21.0398 12.3793 14.8624 14.7586 11.682 18.3448C10.0917 20.1034 9.78593 20.8621 9.78593 22.931C9.78593 27.4483 13.2722 30.931 19.8777 32.9655C30.2752 36.2069 44.2813 35.0345 64.4037 29.2414C79.0826 25 90.1529 20.6552 106.728 12.5862C117.737 7.27586 123.731 4.89655 128.868 3.7931C135.229 2.44828 139.083 2.2069 144.404 2.75862ZM574.924 23.5862C574.924 23.6552 574.434 23.931 573.884 24.1724C572.905 24.6207 572.844 24.5862 573.639 24.0345C574.434 23.4828 574.924 23.3103 574.924 23.5862Z" fill="white"/>
</g>
<defs>
<clipPath id="clip0_66_20">
<rect width="600" height="40" fill="white"/>
</clipPath>
</defs>
</svg>
