<svg width="50" height="50" viewBox="0 0 50 50" fill="none" xmlns="http://www.w3.org/2000/svg">
<g clip-path="url(#clip0_66_78)">
<path d="M12.1094 1.5625C7.5 3.75 0.78125 10.3125 0.78125 12.5781C0.78125 13.5938 2.03125 16.5625 3.59375 19.1406C7.03125 24.8438 6.5625 24.375 8.125 23.75C9.60938 23.2031 9.84375 21.5625 8.4375 22.1094C7.26562 22.4219 2.34375 14.6875 2.34375 12.5C2.34375 11.25 10.1562 3.67188 10.7812 4.29688C10.9375 4.45312 10.1562 6.09375 9.0625 8.04688C7.03125 11.4844 6.32812 15.625 7.8125 15.625C8.28125 15.625 8.59375 14.9219 8.59375 14.0625C8.59375 10.7031 14.1406 1.5625 16.1719 1.5625C17.1094 1.5625 16.875 2.03125 15.3906 3.4375C14.2969 4.45312 12.6562 6.71875 11.7969 8.4375C9.6875 12.5781 9.53125 20.9375 11.4844 24.2188C12.7344 26.3281 12.6562 26.6406 11.0156 31.0156C9.84375 33.9844 9.0625 38.0469 8.82812 42.7344L8.35938 50H25H41.6406L41.25 43.125C41.0156 38.8281 40.1562 34.5312 39.0625 31.3281C37.3438 26.6406 37.3438 26.3281 38.5156 24.2188C39.375 22.7344 39.8438 20.3125 39.8438 16.875C39.8438 11.0938 38.125 6.64062 34.6094 3.4375C33.125 2.03125 32.8906 1.5625 33.8281 1.5625C35.8594 1.5625 41.4062 10.7031 41.4062 14.0625C41.4062 14.9219 41.7969 15.625 42.1875 15.625C43.6719 15.625 42.9688 11.4844 40.9375 8.04688C39.8438 6.09375 39.0625 4.45312 39.2188 4.29688C39.8438 3.67188 47.6562 11.25 47.6562 12.5C47.6562 14.6875 42.7344 22.4219 41.6406 22.1094C40.1562 21.5625 40.3906 23.2031 41.875 23.75C43.4375 24.375 42.9688 24.8438 46.4062 19.1406C47.9688 16.5625 49.2188 13.5938 49.2188 12.5781C49.2188 8.51562 35.8594 -1.09375 32.1875 0.390625C30.5469 1.01562 18.8281 1.09375 18.2031 0.46875C17.4219 -0.3125 15.3906 0.078125 12.1094 1.5625ZM32.3438 3.82812C37.8906 7.5 40.3125 18.4375 36.7188 23.8281C35.2344 26.0938 35.1562 26.0938 35.1562 24.2969C35.1562 23.2812 34.375 21.25 33.5156 19.7656C31.9531 17.3438 31.9531 17.0312 33.125 15.7031C34.6875 13.9844 34.6875 12.1875 33.125 10.8594C32.0312 10 31.6406 10.0781 30.5469 11.4062C29.375 12.8125 29.1406 12.8906 27.1875 11.7188C25.2344 10.7031 24.7656 10.7031 22.8906 11.7188C20.8594 12.8906 20.625 12.8125 19.4531 11.4062C18.3594 10.0781 17.9688 10 16.875 10.8594C15.3125 12.1875 15.3125 13.9844 16.875 15.7031C18.0469 17.0312 18.0469 17.3438 16.4844 19.7656C15.625 21.25 14.8438 23.2812 14.8438 24.2969C14.8438 26.0938 14.7656 26.0938 13.2812 23.8281C9.6875 18.4375 12.1094 7.5 17.6562 3.82812C20.7812 1.79688 29.2188 1.79688 32.3438 3.82812ZM18.75 13.2812C18.75 14.1406 18.4375 14.8438 17.9688 14.8438C17.5781 14.8438 17.1875 14.1406 17.1875 13.2812C17.1875 12.4219 17.5781 11.7188 17.9688 11.7188C18.4375 11.7188 18.75 12.4219 18.75 13.2812ZM32.8125 13.2812C32.8125 14.1406 32.5 14.8438 32.0312 14.8438C31.6406 14.8438 31.25 14.1406 31.25 13.2812C31.25 12.4219 31.6406 11.7188 32.0312 11.7188C32.5 11.7188 32.8125 12.4219 32.8125 13.2812ZM27.0312 13.125C27.5 13.4375 29.1406 15.7031 30.7812 18.2812C32.9688 21.7188 33.5938 23.5156 33.4375 25.625C33.125 29.2188 31.1719 30.4688 28.3594 28.9062C25.5469 27.3438 25.3906 26.25 27.7344 25.1562C30 24.1406 30.2344 22.2656 28.3594 20.1562C26.7969 18.4375 23.5938 18.3594 21.7188 20.0781C19.7656 21.875 20 24.0625 22.2656 25.1562C24.6094 26.25 24.4531 27.3438 21.6406 28.9062C18.8281 30.4688 16.875 29.2188 16.5625 25.625C16.4062 23.5156 17.0312 21.7188 19.2188 18.2812C22.3438 13.3594 23.2031 12.5 25 12.5C25.625 12.5 26.5625 12.8125 27.0312 13.125ZM26.875 20.7812C28.5938 21.4062 28.4375 23.2031 26.5625 24.2188C25.4688 24.8438 24.5312 24.8438 23.4375 24.2188C19.9219 22.3438 22.9688 19.2969 26.875 20.7812ZM25 31.4844C32.1094 31.4844 32.3438 31.4844 34.1406 29.2188C35.5469 27.4219 35.9375 27.2656 35.9375 28.3594C35.9375 29.6094 25.8594 45.2344 25 45.2344C24.7656 45.3125 23.4375 43.5156 22.0312 41.4062C20.7031 39.2188 19.1406 37.5 18.6719 37.5C18.2031 37.5 17.9688 37.7344 18.125 38.0469C18.8281 39.7656 24.5312 47.6562 25 47.6562C25.2344 47.6562 28.0469 43.9062 31.25 39.2969L37.0312 30.9375L38.0469 33.5156C38.6719 34.9219 39.375 38.8281 39.6094 42.2656L40.0781 48.4375H25H9.92188L10.3906 42.3438C11.0156 34.6094 12.2656 30.8594 13.75 32.1094C15.1562 33.2812 16.25 32.3438 15 31.0938C14.4531 30.5469 14.0625 29.4531 14.0625 28.5156C14.0625 27.1094 14.2969 27.1875 15.8594 29.2188C17.6562 31.4844 17.8906 31.4844 25 31.4844ZM26.1719 29.6875C26.4062 30.0781 25.9375 30.4688 25 30.4688C24.0625 30.4688 23.5938 30.0781 23.8281 29.6875C24.0625 29.2188 24.6094 28.9062 25 28.9062C25.3906 28.9062 25.9375 29.2188 26.1719 29.6875Z" fill="#ADA8BF"/>
<path d="M16.0157 35.1562C16.2501 35.5469 16.8751 35.9375 17.2657 35.9375C17.7344 35.9375 17.8126 35.5469 17.5782 35.1562C17.3438 34.6875 16.7188 34.375 16.3282 34.375C15.8594 34.375 15.7813 34.6875 16.0157 35.1562Z" fill="#ADA8BF"/>
</g>
<defs>
<clipPath id="clip0_66_78">
<rect width="50" height="50" fill="white"/>
</clipPath>
</defs>
</svg>
