<svg width="75" height="75" viewBox="0 0 75 75" fill="none" xmlns="http://www.w3.org/2000/svg">
<path d="M65.625 57.8125C65.625 62.1281 62.1281 65.625 57.8125 65.625H17.1875C12.8734 65.625 9.375 62.1281 9.375 57.8125V17.1875C9.375 12.8719 12.8734 9.375 17.1875 9.375H57.8125C62.1281 9.375 65.625 12.8719 65.625 17.1875V57.8125Z" fill="#3F51B5"/>
<path d="M53.7 39.0625H48.4375V59.375H40.625V39.0625H35.9375V32.8125H40.625V29.0469C40.6281 23.5656 42.9047 20.3125 49.3625 20.3125H54.6875V26.5625H51.1141C48.6 26.5625 48.4375 27.5 48.4375 29.2547V32.8125H54.6875L53.7 39.0625Z" fill="white"/>
</svg>
