<svg width="50" height="50" viewBox="0 0 50 50" fill="none" xmlns="http://www.w3.org/2000/svg">
<path d="M41.1458 16.1459C40.8583 16.1459 40.625 15.9125 40.625 15.625V6.25004H35.4167V10.4167C35.4167 10.7042 35.1833 10.9375 34.8958 10.9375C34.6083 10.9375 34.375 10.7042 34.375 10.4167V6.25004C34.375 5.67608 34.8417 5.20837 35.4167 5.20837H40.625C41.2 5.20837 41.6667 5.67608 41.6667 6.25004V15.625C41.6667 15.9125 41.4333 16.1459 41.1458 16.1459Z" fill="#ADA8BF"/>
<path d="M44.702 26.5552C44.4583 26.5552 44.2249 26.4687 44.0354 26.3094L25.2854 10.4469C25.0989 10.2875 24.826 10.2865 24.6354 10.4469L5.96348 26.2906C5.75202 26.4708 5.48952 26.5583 5.2041 26.5323C4.92702 26.5083 4.67598 26.376 4.49889 26.1615L2.84473 24.1667C2.48014 23.7302 2.53639 23.0729 2.97077 22.7042L24.0114 4.85312C24.5895 4.36146 25.4312 4.36146 26.0093 4.85312L47.0301 22.7229H47.0312C47.4614 23.0917 47.5187 23.7458 47.1572 24.1844L45.4989 26.1812C45.3208 26.3958 45.0708 26.5271 44.7937 26.551C44.7635 26.5542 44.7322 26.5552 44.702 26.5552ZM24.9624 9.28438C25.3166 9.28438 25.6708 9.40729 25.9593 9.65208L44.7104 25.5146L46.6916 23.1187L46.3541 23.5156L25.3343 5.64688C25.1468 5.48854 24.8739 5.48542 24.6843 5.64688L3.64577 23.4979L5.30202 25.4958L23.9624 9.65313C24.252 9.40729 24.6072 9.28438 24.9624 9.28438Z" fill="#ADA8BF"/>
<path d="M41.6665 46.875H25.5207C25.2332 46.875 24.9998 46.6417 24.9998 46.3542C24.9998 46.0667 25.2332 45.8334 25.5207 45.8334H41.6665V27.6927L25.3353 13.9823C25.1415 13.8198 24.8592 13.8198 24.6634 13.9834L8.33317 27.7177V45.8334H12.0103C12.2978 45.8334 12.5311 46.0667 12.5311 46.3542C12.5311 46.6417 12.2978 46.875 12.0103 46.875H8.33317C7.75817 46.875 7.2915 46.4073 7.2915 45.8334V27.475C7.2915 27.3219 7.35921 27.175 7.47692 27.0761L23.9936 13.1855C24.578 12.6948 25.4228 12.6959 26.005 13.1844L42.5217 27.0521C42.6405 27.15 42.7082 27.2969 42.7082 27.4511V45.8334C42.7082 46.4073 42.2415 46.875 41.6665 46.875Z" fill="#ADA8BF"/>
<path d="M24.9998 21.875C23.8509 21.875 22.9165 20.9407 22.9165 19.7917C22.9165 18.6427 23.8509 17.7084 24.9998 17.7084C26.1488 17.7084 27.0832 18.6427 27.0832 19.7917C27.0832 20.9407 26.1488 21.875 24.9998 21.875ZM24.9998 18.75C24.4248 18.75 23.9582 19.2177 23.9582 19.7917C23.9582 20.3657 24.4248 20.8334 24.9998 20.8334C25.5748 20.8334 26.0415 20.3657 26.0415 19.7917C26.0415 19.2177 25.5748 18.75 24.9998 18.75Z" fill="#ADA8BF"/>
<path d="M36.4583 40.625H28.1249C27.5499 40.625 27.0833 40.1573 27.0833 39.5833V33.8542C27.0833 33.5667 27.3166 33.3333 27.6041 33.3333C27.8916 33.3333 28.1249 33.5667 28.1249 33.8542V39.5833H36.4583V32.2917H27.6041C27.3166 32.2917 27.0833 32.0583 27.0833 31.7708C27.0833 31.4833 27.3166 31.25 27.6041 31.25H36.4583C37.0333 31.25 37.4999 31.7177 37.4999 32.2917V39.5833C37.4999 40.1573 37.0333 40.625 36.4583 40.625Z" fill="#ADA8BF"/>
<path d="M23.4373 46.875C23.1498 46.875 22.9165 46.6417 22.9165 46.3542V32.2917H14.5832V46.3542C14.5832 46.6417 14.3498 46.875 14.0623 46.875C13.7748 46.875 13.5415 46.6417 13.5415 46.3542V32.2917C13.5415 31.7177 14.0082 31.25 14.5832 31.25H22.9165C23.4915 31.25 23.9582 31.7177 23.9582 32.2917V46.3542C23.9582 46.6417 23.7248 46.875 23.4373 46.875Z" fill="#ADA8BF"/>
<path d="M21.3541 39.5833C21.0666 39.5833 20.8333 39.35 20.8333 39.0625V38.0208C20.8333 37.7333 21.0666 37.5 21.3541 37.5C21.6416 37.5 21.8749 37.7333 21.8749 38.0208V39.0625C21.8749 39.35 21.6416 39.5833 21.3541 39.5833Z" fill="#ADA8BF"/>
<path d="M23.4373 46.875H14.0623C13.7748 46.875 13.5415 46.6417 13.5415 46.3542C13.5415 46.0667 13.7748 45.8334 14.0623 45.8334H23.4373C23.7248 45.8334 23.9582 46.0667 23.9582 46.3542C23.9582 46.6417 23.7248 46.875 23.4373 46.875Z" fill="#ADA8BF"/>
</svg>
