<svg width="75" height="75" viewBox="0 0 75 75" fill="none" xmlns="http://www.w3.org/2000/svg">
<path d="M53.1516 65.6094L21.9016 65.6391C15.0266 65.6453 9.39688 60.0266 9.38907 53.1516L9.35938 21.9016C9.35313 15.0266 14.9719 9.39688 21.8469 9.38907L53.0969 9.35938C59.9719 9.35313 65.6016 14.9719 65.6094 21.8469L65.6391 53.0969C65.6469 59.9734 60.0266 65.6031 53.1516 65.6094Z" fill="url(#paint0_radial_66_217)"/>
<path d="M53.1516 65.6094L21.9016 65.6391C15.0266 65.6453 9.39688 60.0266 9.38907 53.1516L9.35938 21.9016C9.35313 15.0266 14.9719 9.39688 21.8469 9.38907L53.0969 9.35938C59.9719 9.35313 65.6016 14.9719 65.6094 21.8469L65.6391 53.0969C65.6469 59.9734 60.0266 65.6031 53.1516 65.6094Z" fill="url(#paint1_radial_66_217)"/>
<path d="M37.5 48.4375C31.4703 48.4375 26.5625 43.5312 26.5625 37.5C26.5625 31.4688 31.4703 26.5625 37.5 26.5625C43.5297 26.5625 48.4375 31.4688 48.4375 37.5C48.4375 43.5312 43.5297 48.4375 37.5 48.4375ZM37.5 29.6875C33.1922 29.6875 29.6875 33.1922 29.6875 37.5C29.6875 41.8078 33.1922 45.3125 37.5 45.3125C41.8078 45.3125 45.3125 41.8078 45.3125 37.5C45.3125 33.1922 41.8078 29.6875 37.5 29.6875Z" fill="white"/>
<path d="M49.2188 28.125C50.5132 28.125 51.5625 27.0757 51.5625 25.7812C51.5625 24.4868 50.5132 23.4375 49.2188 23.4375C47.9243 23.4375 46.875 24.4868 46.875 25.7812C46.875 27.0757 47.9243 28.125 49.2188 28.125Z" fill="white"/>
<path d="M46.875 57.8125H28.125C22.0953 57.8125 17.1875 52.9062 17.1875 46.875V28.125C17.1875 22.0938 22.0953 17.1875 28.125 17.1875H46.875C52.9047 17.1875 57.8125 22.0938 57.8125 28.125V46.875C57.8125 52.9062 52.9047 57.8125 46.875 57.8125ZM28.125 20.3125C23.8172 20.3125 20.3125 23.8172 20.3125 28.125V46.875C20.3125 51.1828 23.8172 54.6875 28.125 54.6875H46.875C51.1828 54.6875 54.6875 51.1828 54.6875 46.875V28.125C54.6875 23.8172 51.1828 20.3125 46.875 20.3125H28.125Z" fill="white"/>
<defs>
<radialGradient id="paint0_radial_66_217" cx="0" cy="0" r="1" gradientUnits="userSpaceOnUse" gradientTransform="translate(30.2813 65.6797) scale(70.1547 70.1547)">
<stop stop-color="#FFDD55"/>
<stop offset="0.328" stop-color="#FF543F"/>
<stop offset="0.348" stop-color="#FC5245"/>
<stop offset="0.504" stop-color="#E64771"/>
<stop offset="0.643" stop-color="#D53E91"/>
<stop offset="0.761" stop-color="#CC39A4"/>
<stop offset="0.841" stop-color="#C837AB"/>
</radialGradient>
<radialGradient id="paint1_radial_66_217" cx="0" cy="0" r="1" gradientUnits="userSpaceOnUse" gradientTransform="translate(18.4156 8.65673) scale(46.5828 31.0381)">
<stop stop-color="#4168C9"/>
<stop offset="0.999" stop-color="#4168C9" stop-opacity="0"/>
</radialGradient>
</defs>
</svg>
