<svg width="50" height="50" viewBox="0 0 50 50" fill="none" xmlns="http://www.w3.org/2000/svg">
<g clip-path="url(#clip0_66_59)">
<path d="M37.0967 24.1936H36.2903H17.7419C17.7419 23.871 17.7419 23.7097 17.7419 23.3871V12.0968C17.7419 8.0646 20.9677 4.83879 24.9999 4.83879C29.0321 4.83879 32.2579 8.0646 32.2579 12.0968V13.7097V18.5484C32.2579 19.8388 33.387 20.9678 34.6773 20.9678C35.9676 20.9678 37.0967 19.8388 37.0967 18.5484V13.7097V12.0968C37.0967 5.48387 31.6128 0 25 0C18.387 0 12.9032 5.48387 12.9032 12.0968V24.1936C10.1612 24.1936 8.06445 26.2904 8.06445 29.0323V37.0969C8.06445 44.1936 13.8709 50.0001 20.9677 50.0001H29.0322C36.129 50.0001 41.9354 44.1936 41.9354 37.0969V29.0323C41.9354 26.4516 39.8387 24.1936 37.0967 24.1936ZM14.5161 12.0968C14.5161 6.29037 19.1934 1.61299 24.9999 1.61299C30.8063 1.61299 35.4837 6.29037 35.4837 12.0968V12.9032V18.5484C35.4837 19.0323 35.1611 19.3548 34.6773 19.3548C34.1935 19.3548 33.8709 19.0323 33.8709 18.5484V12.0968C33.8709 7.25811 29.8387 3.22581 24.9999 3.22581C20.1611 3.22581 16.129 7.25802 16.129 12.0968V24.1936H14.5161C14.5161 23.8711 14.5161 23.7098 14.5161 23.3872V12.0968ZM40.3225 37.0968C40.3225 43.3871 35.3226 48.3871 29.0322 48.3871H20.9677C14.6774 48.3871 9.67736 43.3871 9.67736 37.0968V29.0323C9.67736 27.2581 11.1289 25.8065 12.9032 25.8065H37.0967C38.8709 25.8065 40.3225 27.2581 40.3225 29.0323V37.0968Z" fill="#ADA8BF"/>
<path d="M25 30.6451C22.7419 30.6451 20.9678 32.4193 20.9678 34.6774C20.9678 35.9677 21.6129 37.0968 22.5807 37.9032V41.129C22.5807 42.4193 23.7097 43.5484 25.0001 43.5484C26.2904 43.5484 27.4195 42.4193 27.4195 41.129V37.9032C28.3872 37.0968 29.0324 35.9677 29.0324 34.6774C29.0322 32.4193 27.2581 30.6451 25 30.6451ZM25.8064 36.9355V41.1291C25.8064 41.6129 25.4838 41.9355 25 41.9355C24.5162 41.9355 24.1936 41.6129 24.1936 41.1291V36.9355C23.2258 36.6129 22.5807 35.6451 22.5807 34.6774C22.5807 33.3871 23.7097 32.258 25.0001 32.258C26.2904 32.258 27.4195 33.3871 27.4195 34.6774C27.4193 35.8064 26.7741 36.6129 25.8064 36.9355Z" fill="#ADA8BF"/>
</g>
<defs>
<clipPath id="clip0_66_59">
<rect width="50" height="50" fill="white"/>
</clipPath>
</defs>
</svg>
