<svg width="50" height="50" viewBox="0 0 50 50" fill="none" xmlns="http://www.w3.org/2000/svg">
<path d="M15.05 8.44995C13.15 10.2 12.5 11.9 12.5 14.9C12.5 17.45 13.75 20.05 15.75 21.6C16.9 22.5 16.95 22.7 17.1 32.55C17.25 42.4 17.25 42.6 18.45 43.55C19.95 44.8 21.55 44.75 23.2 43.45L24.5 42.45V32.55V22.7L26.05 21.55C27.8 20.25 29.5 16.95 29.5 14.75C29.5 12.65 27.9 9.39995 26.25 8.09995C23.85 6.19995 23.5 6.54995 23.5 10.9C23.5 15.3 23.1 16 20.65 16C18.5 16 18 14.95 18 10.55C18 6.44995 17.55 6.14995 15.05 8.44995ZM17 11.75C17 14.35 17.2 15.2 18 16C19.2 17.2 21.85 17.3 23.4 16.2C24.35 15.55 24.5 15 24.5 11.95C24.5 10.05 24.7 8.49995 24.95 8.49995C25.85 8.49995 27.95 11.55 28.3 13.3C28.8 16 27.75 18.7 25.5 20.65L23.5 22.35V32C23.5 40.3 23.4 41.8 22.65 42.6C21.6 43.8 20.25 43.75 19 42.5C18.05 41.55 18 40.85 18 31.55C18 22 17.95 21.55 17 21.25C15.2 20.7 13.5 17.55 13.5 14.85C13.5 12.4 14 11 15.4 9.34995C16.7 7.89995 17 8.34995 17 11.75Z" fill="#ADA8BF"/>
<path d="M19.2 27.7499C19.2 30.4999 19.25 31.5499 19.35 30.0999C19.45 28.6499 19.45 26.3999 19.35 25.0999C19.25 23.7999 19.2 24.9999 19.2 27.7499Z" fill="#ADA8BF"/>
<path d="M19.1001 33.9999C19.1001 34.6999 19.2001 34.9499 19.3501 34.5999C19.4501 34.2999 19.4501 33.6999 19.3501 33.3499C19.2001 33.0499 19.1001 33.2999 19.1001 33.9999Z" fill="#ADA8BF"/>
<path d="M19.0501 36.2999C19.0501 36.8499 19.2001 36.9999 19.3501 36.5999C19.5001 36.2499 19.4501 35.7999 19.3001 35.6499C19.1501 35.4499 19.0001 35.7499 19.0501 36.2999Z" fill="#ADA8BF"/>
<path d="M19.8001 38.9499C19.3001 39.7499 20.0501 41.0499 20.9501 40.8999C22.0001 40.6999 22.0001 38.7999 20.9001 38.5999C20.4501 38.4999 19.9501 38.6499 19.8001 38.9499ZM21.5001 39.7499C21.5001 40.1499 21.3001 40.4999 21.0501 40.4999C20.4001 40.4999 19.9501 39.6999 20.3501 39.2999C20.9001 38.7499 21.5001 38.9999 21.5001 39.7499Z" fill="#ADA8BF"/>
<path d="M31.5 10.3C31.05 12.45 31.05 13.45 31.45 14.1C31.8 14.65 32 17.6 32 21.5C32 27.65 31.95 28 31 28C30.05 28 30 28.35 30 34.8V41.6L31.5 43.1C32.75 44.3 33.3 44.55 34.4 44.3C37.15 43.65 37.5 42.6 37.5 34.95C37.5 28.35 37.45 28 36.5 28C35.55 28 35.5 27.65 35.5 21.4C35.5 16.6 35.7 14.6 36.15 14.05C36.7 13.4 36.75 12.7 36.3 10.5C35.75 7.8 35.7 7.75 33.9 7.6L32.1 7.45L31.5 10.3ZM35.3 10.8C35.65 13.35 35.2 14.15 33.45 13.9C32.4 13.75 32.25 13.5 32.35 11.75C32.55 9.05 32.8 8.5 33.95 8.5C34.75 8.5 35 8.95 35.3 10.8ZM34.5 21.5C34.5 26.95 34.4 28 33.75 28C33.1 28 33 26.95 33 21.5C33 16.05 33.1 15 33.75 15C34.4 15 34.5 16.05 34.5 21.5ZM36.5 35.5C36.5 41.8 36.45 42 35.25 42.8C33.75 43.8 32.35 43.35 31.6 41.7C31.25 41 31 38 31 34.75V29H33.75H36.5V35.5Z" fill="#ADA8BF"/>
<path d="M31.6999 30.6499C31.5499 31.0499 31.4999 33.3499 31.5999 35.7999C31.7499 39.5499 31.8999 40.2499 32.6499 40.3999C33.3999 40.5499 33.4999 40.0499 33.4999 35.2999C33.4999 30.8499 33.3499 29.9999 32.7499 29.9999C32.2999 29.9999 31.8499 30.2999 31.6999 30.6499ZM32.9999 35.2499C32.9999 38.0999 32.7999 39.9999 32.4999 39.9999C32.1999 39.9999 31.9999 38.0999 31.9999 35.2499C31.9999 32.3999 32.1999 30.4999 32.4999 30.4999C32.7999 30.4999 32.9999 32.3999 32.9999 35.2499Z" fill="#ADA8BF"/>
<path d="M34.2001 30.6499C34.0501 31.0499 34.0001 33.3499 34.1001 35.7999C34.2501 39.5499 34.4001 40.2499 35.1501 40.3999C35.9001 40.5499 36.0001 40.0499 36.0001 35.2999C36.0001 30.8499 35.8501 29.9999 35.2501 29.9999C34.8001 29.9999 34.3501 30.2999 34.2001 30.6499ZM35.5001 35.2499C35.5001 38.0999 35.3001 39.9999 35.0001 39.9999C34.7001 39.9999 34.5001 38.0999 34.5001 35.2499C34.5001 32.3999 34.7001 30.4999 35.0001 30.4999C35.3001 30.4999 35.5001 32.3999 35.5001 35.2499Z" fill="#ADA8BF"/>
</svg>
