<svg width="500" height="500" viewBox="0 0 500 500" fill="none" xmlns="http://www.w3.org/2000/svg">
<g clip-path="url(#clip0_66_54)">
<rect width="500" height="500" rx="100" fill="#622323" fill-opacity="0.25"/>
<path d="M0 129.213V258.427H21.3483C37.0787 258.427 46.6292 254.494 56.1798 244.382C63.4832 236.517 73.5955 230.337 78.0899 230.899C84.8315 230.899 83.7079 232.584 75.8427 235.955C69.6629 238.202 60.1124 246.067 55.0562 252.247C49.4382 258.989 39.8876 264.045 33.7079 264.045C26.9663 264.045 23.5955 266.292 25.2809 269.663C29.7753 276.966 24.7191 276.966 10.6742 269.663C0.561798 264.045 0 266.854 0 382.022V500H123.034H246.067L232.584 467.416C225.281 450 219.663 430.337 219.663 424.157C219.663 417.978 223.596 425.281 228.652 441.011C237.64 470.787 247.191 486.517 247.191 470.787C247.191 465.73 253.371 454.494 260.674 445.506C267.416 437.079 275.281 425.843 276.966 421.348C279.214 414.607 280.337 414.607 280.337 422.472C280.899 427.528 274.719 438.764 266.854 447.191C257.865 457.303 252.809 469.101 252.809 480.899V500H376.405H500V250V-3.99351e-05H250H0V129.213ZM257.303 65.1685C264.045 69.6629 269.663 79.2134 269.101 85.955C269.101 94.382 267.978 95.5056 265.73 89.8876C264.045 85.3932 257.865 76.4045 252.247 70.2247C238.202 54.4943 229.775 30.337 234.831 18.5393C237.64 11.2359 239.326 15.7303 242.135 32.5842C243.82 48.3146 249.438 59.5505 257.303 65.1685ZM364.607 57.3033C364.607 67.4157 362.921 73.0337 361.798 69.1011C360.112 65.1685 353.933 67.9775 345.506 76.4045C338.202 83.7078 326.966 89.8876 320.787 89.8876C314.607 89.8876 306.742 94.382 303.933 99.4382C300.562 105.056 297.753 106.742 297.753 103.371C297.753 94.382 308.989 86.5168 327.528 82.0224C337.64 79.7752 346.067 71.9101 352.247 58.9887C357.303 48.3146 362.36 39.3258 363.483 39.3258C364.607 39.3258 365.169 47.7528 364.607 57.3033ZM132.022 67.4157C133.708 73.0337 145.506 80.8988 158.989 85.3932C174.719 90.4494 183.146 96.6292 184.27 103.933C185.955 114.045 185.393 114.045 176.966 102.247C171.91 95.5056 161.798 89.8876 154.494 89.8876C147.191 89.8876 137.079 84.2696 132.584 77.5281C121.348 61.2359 120.787 73.0337 131.461 108.427C135.955 123.034 137.079 133.708 134.831 132.022C130.899 129.775 112.36 59.5505 112.36 47.191C112.36 40.4494 128.652 57.3033 132.022 67.4157ZM217.416 93.8202C215.73 99.4382 214.607 96.0674 214.607 87.0786C214.607 77.5281 215.73 73.5955 217.416 76.9663C218.539 80.8988 218.539 88.764 217.416 93.8202ZM356.742 106.18C354.494 119.101 350 130.899 346.629 133.146C342.697 135.393 342.135 133.146 344.944 125.843C347.191 120.225 350.562 106.742 352.247 96.6292C353.933 86.5168 356.742 79.2134 357.865 80.8988C359.551 82.5842 358.989 93.8202 356.742 106.18ZM306.18 125.843C347.753 144.944 388.764 196.629 387.079 228.652C387.079 234.27 383.146 227.528 379.214 213.483C361.798 157.303 306.742 117.977 246.067 117.977C164.607 117.977 106.742 175.843 106.742 256.742C106.742 298.315 115.169 321.348 140.449 350.562C164.607 377.528 194.944 392.697 238.202 398.876L272.472 403.933L237.64 402.247C156.742 397.191 101.124 338.202 101.124 257.303C101.685 149.438 208.989 80.337 306.18 125.843ZM455.056 133.708C455.056 139.888 398.315 203.371 394.944 200.562C393.82 199.438 402.247 188.202 414.045 176.404L435.393 155.056L410.112 151.124C396.067 148.876 379.775 148.315 373.596 149.438C364.607 151.685 364.045 151.124 370.225 146.629C374.719 143.82 390.449 142.697 404.494 144.382C424.157 146.629 432.023 144.944 437.64 138.202C445.506 128.652 455.056 126.404 455.056 133.708ZM84.8315 152.247C97.191 147.753 105.056 147.753 111.798 152.247C119.663 157.865 119.663 157.865 111.236 155.056C105.618 153.371 93.8202 154.494 84.8315 157.865C73.0337 161.798 64.6067 161.798 56.1798 157.303C44.382 151.124 44.382 151.124 53.9326 165.73C58.9888 173.595 71.3483 186.517 80.8989 193.82C90.4494 201.685 95.5056 207.865 92.1348 207.865C84.8315 207.865 28.0899 147.753 28.0899 140.449C28.0899 137.64 37.0787 140.449 47.7528 146.629C64.0449 156.742 70.2247 157.303 84.8315 152.247ZM439.888 239.326C453.371 251.124 460.674 252.809 475.843 250C485.955 248.315 494.382 248.315 494.382 250C494.382 256.18 432.023 280.899 416.854 280.337C405.618 280.337 408.427 278.09 428.652 273.034C461.798 264.045 465.73 260.112 448.315 253.371C440.449 250.562 432.584 244.382 430.899 239.888C429.214 234.831 421.91 230.337 414.607 228.652C405.056 226.966 404.494 225.843 412.36 225.281C417.978 225.281 430.337 231.461 439.888 239.326ZM390.449 274.719C383.146 328.652 335.393 385.955 289.326 396.067C276.966 398.876 279.214 396.629 297.753 387.64C347.753 364.045 378.09 323.034 385.393 270.225C387.64 254.494 390.449 242.135 391.573 243.82C393.258 245.506 392.697 258.989 390.449 274.719ZM65.7303 284.27C64.0449 285.955 58.9888 286.517 55.0562 284.831C50.5618 283.146 52.2472 281.461 58.427 281.461C64.6067 280.899 67.9775 282.584 65.7303 284.27ZM416.292 330.337C421.348 339.888 428.652 352.247 432.584 356.742C437.64 362.921 437.64 365.169 433.146 365.169C429.775 365.169 421.91 353.933 415.73 340.449C410.112 326.966 402.809 314.607 399.438 312.921C395.506 311.236 396.067 310.112 400 311.236C403.933 311.798 411.236 320.225 416.292 330.337ZM87.6405 326.966C82.5843 333.708 78.6517 343.258 78.6517 347.753C78.6517 352.247 74.1573 360.674 69.1011 366.854C58.9888 378.09 59.5506 378.09 84.2697 374.157C97.7528 371.91 112.921 367.416 117.978 364.045C125.281 358.427 125.281 358.427 117.416 366.854C112.36 373.034 98.8764 377.528 83.7079 378.09C70.2247 378.652 57.3034 381.461 55.618 383.708C53.3708 386.517 47.191 387.64 41.573 386.517C33.1461 385.393 35.3933 382.022 52.2472 372.472C64.0449 365.169 73.0337 355.618 73.0337 350C73.0337 339.888 87.6405 314.607 93.2584 314.607C94.9438 314.607 92.1348 320.225 87.6405 326.966ZM424.719 367.978C458.989 369.663 473.596 376.404 443.258 376.404C416.854 375.843 382.023 367.416 374.157 359.551C369.663 353.933 370.787 353.933 380.899 358.989C388.202 362.921 407.865 366.854 424.719 367.978ZM358.427 399.438C356.742 410.674 355.618 410.112 353.371 394.382C351.685 383.146 352.247 378.09 355.618 381.461C358.427 384.27 359.551 392.135 358.427 399.438ZM143.258 392.697C141.573 398.315 142.697 408.989 144.944 416.292C147.753 423.595 148.315 435.393 145.506 442.135C138.202 461.236 147.753 457.865 170.787 432.584C182.022 420.225 191.011 412.36 191.011 415.169C191.011 421.348 129.213 479.775 126.405 476.404C124.719 475.281 128.652 464.607 134.831 452.809C142.697 436.517 144.382 428.09 139.888 417.416C134.831 403.933 137.64 382.022 143.82 382.022C145.506 382.022 145.506 386.517 143.258 392.697ZM338.764 438.202L353.933 451.685L351.124 432.022C348.315 414.045 348.315 413.483 353.371 429.213C356.742 437.64 363.483 450 368.539 455.618C373.596 461.798 376.966 467.978 375.281 469.663C370.787 473.596 303.371 416.854 303.371 409.551C303.371 406.18 307.865 407.865 313.483 414.045C318.539 419.663 329.775 430.899 338.764 438.202Z" fill="white"/>
</g>
<defs>
<clipPath id="clip0_66_54">
<rect width="500" height="500" rx="100" fill="white"/>
</clipPath>
</defs>
</svg>
